<?xml version="1.0" standalone="no"?>
<!DOCTYPE svg PUBLIC "-//W3C//DTD SVG 20010904//EN"
 "http://www.w3.org/TR/2001/REC-SVG-20010904/DTD/svg10.dtd">
<svg version="1.0" xmlns="http://www.w3.org/2000/svg"
 width="160.000000pt" height="160.000000pt" viewBox="0 0 160.000000 160.000000"
 preserveAspectRatio="xMidYMid meet">
<metadata>
Created by potrace 1.11, written by Peter Selinger 2001-2013
</metadata>
<g transform="translate(0.000000,160.000000) scale(0.100000,-0.100000)"
fill="#000000" stroke="none">
<path d="M620 1558 c-10 -11 -44 -26 -76 -35 -33 -8 -83 -26 -112 -39 -29 -13
-58 -22 -63 -18 -14 8 -77 -34 -97 -65 -9 -14 -36 -50 -59 -79 -73 -90 -123
-205 -129 -296 -3 -45 0 -52 31 -82 28 -26 35 -40 35 -71 0 -32 -5 -41 -35
-61 -39 -25 -43 -41 -17 -65 13 -12 17 -30 15 -83 -1 -37 2 -75 7 -83 10 -19
-12 -66 -35 -75 -11 -4 -15 -16 -13 -38 2 -25 9 -34 27 -38 22 -5 25 -11 27
-69 6 -118 32 -160 132 -211 118 -60 290 -88 541 -88 97 0 201 4 231 8 127 18
148 22 205 36 113 29 203 83 229 138 9 20 19 59 22 88 3 30 12 56 20 61 8 4
14 16 14 26 0 11 7 22 16 25 12 5 15 15 11 39 -9 58 -16 79 -31 91 -11 8 -14
26 -12 61 1 28 -1 59 -5 71 -5 14 -2 24 12 32 38 24 14 91 -33 92 -14 0 -17 8
-15 41 2 32 10 49 35 75 30 30 33 39 31 81 -5 81 -102 308 -137 320 -9 3 -35
23 -57 44 -44 42 -171 107 -250 129 -27 8 -62 23 -77 33 -20 15 -31 17 -40 10
-15 -12 -248 -11 -267 1 -25 16 -63 13 -81 -6z"/>
</g>
</svg>
